<svg version="1" xmlns="http://www.w3.org/2000/svg" width="682.667" height="682.667" viewBox="0 0 512.000000 512.000000"><path d="M215.4 37.4c-6.3 2-11.1 6.2-14 12.2-3.7 7.5-3.2 16.9 1.2 24 9.7 15.8 33.5 14.8 41.8-1.8 6.2-12.4 1.3-27.5-10.9-33.2-4.9-2.3-13.1-2.9-18.1-1.2zM108.2 64.1c-11.1 5.6-14.5 20.6-7.2 30.8 4.1 5.6 9.4 8.1 17.3 8.1 5.3 0 7.1-.5 11-2.9 12.2-7.8 12.5-26.5.4-34.8-5.5-3.8-15.3-4.4-21.5-1.2zM319.5 66.5c-5.2 1.9-13 10-14.4 15.1-2.9 10.3-.8 19 6.3 26 5.5 5.5 9.8 7.4 17.5 7.4 7.4 0 12.2-2 17.6-7.5 5.4-5.4 7.5-10.2 7.5-17.5 0-7.3-2.1-12.1-7.5-17.5-7.2-7.3-17.1-9.5-27-6zM39 129.2c-12.8 3.6-16.1 21.1-5.7 29.9 8.2 6.9 22.8 2.9 26.6-7.4 3.6-9.4-1.9-19.9-11.7-22.7-4.3-1.2-4.5-1.1-9.2.2zM396.8 141.3c-11.9 3.4-19.6 13.7-19.8 26.3 0 10.4 4.9 18.8 14 23.8 13.9 7.6 31.3 2 38-12.2 4.5-9.4 2.3-23-4.8-30.5-6.4-6.8-18.2-9.9-27.4-7.4zM430.5 251.4c-2.7 1.3-6.7 4.1-8.8 6.2-6.1 6.2-8 10.7-8.5 20.6-.4 7.6-.1 9.2 2.1 14 6.3 13.8 21.2 21.1 35.6 17.4 11.8-3 19.7-10.9 22.7-22.7 1.9-7.3 1.3-13.1-2-20.4-3.3-7.2-6.9-11-13.8-14.4-5.3-2.7-7.2-3.1-14.2-3.1-6.4 0-9.1.5-13.1 2.4zM446.9 368.3c-10.4 3-19.1 10.5-23.7 20.6-2.1 4.5-2.6 7.1-2.6 13.6.1 11.1 2.9 18.2 10.3 25.6 7.2 7.1 14.1 9.9 24.6 9.9 9.9 0 16.9-2.7 24.1-9.2 8-7.4 10.7-13.1 11.2-24.5.4-8.6.2-9.6-2.6-15.7-1.6-3.5-4.9-8.3-7.2-10.6-8.4-8.4-23.4-12.7-34.1-9.7z"/></svg>